<svg xmlns="http://www.w3.org/2000/svg" xmlns:xlink="http://www.w3.org/1999/xlink" viewBox="0,0,256,256" width="100px" height="100px" fill-rule="nonzero"><g fill="#c8a96b" fill-rule="nonzero" stroke="none" stroke-width="1" stroke-linecap="butt" stroke-linejoin="miter" stroke-miterlimit="10" stroke-dasharray="" stroke-dashoffset="0" font-family="none" font-weight="none" font-size="none" text-anchor="none" style="mix-blend-mode: normal"><g transform="scale(5.12,5.12)"><path d="M7,9c-2.74952,0 -5,2.25048 -5,5v22c0,2.74952 2.25048,5 5,5h18h4.63672c-0.247,-0.634 -0.46992,-1.301 -0.66992,-2h-3.9668h-18c-1.66848,0 -3,-1.33152 -3,-3v-15h42v3v3.85938c0.562,0.232 1.21,0.46255 2,0.68555v-4.54492v-10c0,-2.74952 -2.25048,-5 -5,-5zM7,11h36c1.66848,0 3,1.33152 3,3v2h-42v-2c0,-1.66848 1.33152,-3 3,-3zM9,24v2h16v-2zM40,27.90039c-1.5,0 -2.49922,0.49961 -3.69922,1.09961c-1.2,0.6 -2.7,1.30039 -5.5,1.90039l-0.80078,0.19922v0.80078c0,13 9.2,17.70039 9.5,17.90039l0.5,0.19922l0.5,-0.19922c0.4,-0.2 9.5,-5.30039 9.5,-17.90039v-0.80078l-0.80078,-0.19922c-2.8,-0.6 -4.3,-1.30039 -5.5,-1.90039c-1.2,-0.6 -2.19922,-1.09961 -3.69922,-1.09961zM40,29.90039c1.1,0 1.70078,0.30039 2.80078,0.90039c1.2,0.5 2.69922,1.29844 5.19922,1.89844c-0.3,9.3 -6.3,13.9 -8,15c-1.8,-1 -7.7,-5.3 -8,-15c2.6,-0.6 4.09922,-1.39844 5.19922,-1.89844c1.1,-0.6 1.70078,-0.90039 2.80078,-0.90039z"></path></g></g></svg>