<svg xmlns="http://www.w3.org/2000/svg" xmlns:xlink="http://www.w3.org/1999/xlink" viewBox="0,0,256,256" width="100px" height="100px" fill-rule="nonzero"><g fill="#c8a96b" fill-rule="nonzero" stroke="none" stroke-width="1" stroke-linecap="butt" stroke-linejoin="miter" stroke-miterlimit="10" stroke-dasharray="" stroke-dashoffset="0" font-family="none" font-weight="none" font-size="none" text-anchor="none" style="mix-blend-mode: normal"><g transform="scale(5.12,5.12)"><path d="M0,8v2h28.09961c0.4,0 0.90039,0.50039 0.90039,0.90039v27.09961h-10.0918c-0.48028,-2.82834 -2.94782,-5 -5.9082,-5c-1.91667,0 -3.48144,0.75476 -4.49805,1.89844c-0.78587,0.88411 -1.24583,1.97292 -1.41797,3.10156h-4.08398c-0.55455,0 -1,-0.44546 -1,-1v-9h-2v9c0,1.64545 1.35455,3 3,3h4.08398c0.17214,1.12864 0.63209,2.21745 1.41797,3.10156c1.01661,1.14368 2.58138,1.89844 4.49805,1.89844c2.96039,0 5.42792,-2.17166 5.9082,-5h12.0918h3.08398c0.17214,1.12864 0.63209,2.21745 1.41797,3.10156c1.01661,1.14368 2.58138,1.89844 4.49805,1.89844c2.96039,0 5.42792,-2.17166 5.9082,-5h1.0918c0.83333,0 1.5499,-0.38583 2.08203,-0.91797c0.53213,-0.53214 0.91797,-1.2487 0.91797,-2.08203v-9.59961c0,-1.12451 -0.41804,-2.14656 -0.80273,-2.92969c-0.38469,-0.78312 -0.77734,-1.34375 -0.77734,-1.34375l-0.00977,-0.01172l-4.11914,-5.52734l-0.00977,-0.01172c-0.88627,-1.10792 -2.30982,-2.57617 -4.28125,-2.57617h-8c-0.35859,0 -0.69004,0.08323 -1,0.20703v-4.30664c0,-1.6 -1.30039,-2.90039 -2.90039,-2.90039zM0,12v2h18v-2zM0,16v2h15v-2zM32,17h4v9c0,0.83333 0.38583,1.5499 0.91797,2.08203c0.53214,0.53214 1.2487,0.91797 2.08203,0.91797h9v8c0,0.16667 -0.11417,0.4501 -0.33203,0.66797c-0.21786,0.21787 -0.5013,0.33203 -0.66797,0.33203h-1.0918c-0.48028,-2.82834 -2.94782,-5 -5.9082,-5c-1.91667,0 -3.48144,0.75476 -4.49805,1.89844c-0.78587,0.88411 -1.24583,1.97292 -1.41797,3.10156h-3.08398v-20c0,-0.16667 0.11417,-0.4501 0.33203,-0.66797c0.21786,-0.21786 0.5013,-0.33203 0.66797,-0.33203zM38,17h2c0.82857,0 2.00509,0.93214 2.71875,1.82422l4.0625,5.44922c0,0 0.30579,0.4382 0.62109,1.08008c0.25362,0.51629 0.39931,1.11731 0.48047,1.64648h-8.88281c-0.16667,0 -0.4501,-0.11417 -0.66797,-0.33203c-0.21787,-0.21786 -0.33203,-0.5013 -0.33203,-0.66797zM0,20v2h12v-2zM0,24v2h9v-2zM13,35c2.22099,0 4,1.77902 4,4c0,2.22098 -1.77901,4 -4,4c-1.41667,0 -2.35189,-0.49524 -3.00195,-1.22656c-0.65006,-0.73132 -0.99805,-1.74566 -0.99805,-2.77344c0,-1.02778 0.34799,-2.04212 0.99805,-2.77344c0.65006,-0.73132 1.58529,-1.22656 3.00195,-1.22656zM40,35c2.22099,0 4,1.77902 4,4c0,2.22098 -1.77901,4 -4,4c-1.41667,0 -2.35189,-0.49524 -3.00195,-1.22656c-0.65006,-0.73132 -0.99805,-1.74566 -0.99805,-2.77344c0,-1.02778 0.34799,-2.04212 0.99805,-2.77344c0.65006,-0.73132 1.58529,-1.22656 3.00195,-1.22656z"></path></g></g></svg>